<svg id="SvgjsSvg1006" width="2165.5250549316406" height="432.43751525878906" xmlns="http://www.w3.org/2000/svg" version="1.1" xmlns:xlink="http://www.w3.org/1999/xlink" xmlns:svgjs="http://svgjs.com/svgjs"><defs id="SvgjsDefs1007"><marker id="SvgjsMarker1018" markerWidth="16" markerHeight="12" refX="16" refY="6" viewBox="0 0 16 12" orient="auto" markerUnits="userSpaceOnUse"><path id="SvgjsPath1019" d="M0,2 L14,6 L0,11 L0,2" fill="#323232" stroke="#323232" stroke-width="2"></path></marker><marker id="SvgjsMarker1032" markerWidth="16" markerHeight="12" refX="16" refY="6" viewBox="0 0 16 12" orient="auto" markerUnits="userSpaceOnUse"><path id="SvgjsPath1033" d="M0,2 L14,6 L0,11 L0,2" fill="#323232" stroke="#323232" stroke-width="2"></path></marker><marker id="SvgjsMarker1042" markerWidth="16" markerHeight="12" refX="16" refY="6" viewBox="0 0 16 12" orient="auto" markerUnits="userSpaceOnUse"><path id="SvgjsPath1043" d="M0,2 L14,6 L0,11 L0,2" fill="#323232" stroke="#323232" stroke-width="2"></path></marker><marker id="SvgjsMarker1052" markerWidth="16" markerHeight="12" refX="16" refY="6" viewBox="0 0 16 12" orient="auto" markerUnits="userSpaceOnUse"><path id="SvgjsPath1053" d="M0,2 L14,6 L0,11 L0,2" fill="#323232" stroke="#323232" stroke-width="2"></path></marker><marker id="SvgjsMarker1062" markerWidth="16" markerHeight="12" refX="16" refY="6" viewBox="0 0 16 12" orient="auto" markerUnits="userSpaceOnUse"><path id="SvgjsPath1063" d="M0,2 L14,6 L0,11 L0,2" fill="#323232" stroke="#323232" stroke-width="2"></path></marker><marker id="SvgjsMarker1072" markerWidth="16" markerHeight="12" refX="16" refY="6" viewBox="0 0 16 12" orient="auto" markerUnits="userSpaceOnUse"><path id="SvgjsPath1073" d="M0,2 L14,6 L0,11 L0,2" fill="#323232" stroke="#323232" stroke-width="2"></path></marker><marker id="SvgjsMarker1088" markerWidth="16" markerHeight="12" refX="16" refY="6" viewBox="0 0 16 12" orient="auto" markerUnits="userSpaceOnUse"><path id="SvgjsPath1089" d="M0,2 L14,6 L0,11 L0,2" fill="#323232" stroke="#323232" stroke-width="2"></path></marker><marker id="SvgjsMarker1152" markerWidth="16" markerHeight="12" refX="16" refY="6" viewBox="0 0 16 12" orient="auto" markerUnits="userSpaceOnUse"><path id="SvgjsPath1153" d="M0,2 L14,6 L0,11 L0,2" fill="#323232" stroke="#323232" stroke-width="2"></path></marker><marker id="SvgjsMarker1162" markerWidth="16" markerHeight="12" refX="16" refY="6" viewBox="0 0 16 12" orient="auto" markerUnits="userSpaceOnUse"><path id="SvgjsPath1163" d="M0,2 L14,6 L0,11 L0,2" fill="#323232" stroke="#323232" stroke-width="2"></path></marker><marker id="SvgjsMarker1176" markerWidth="16" markerHeight="12" refX="16" refY="6" viewBox="0 0 16 12" orient="auto" markerUnits="userSpaceOnUse"><path id="SvgjsPath1177" d="M0,2 L14,6 L0,11 L0,2" fill="#323232" stroke="#323232" stroke-width="2"></path></marker><marker id="SvgjsMarker1186" markerWidth="16" markerHeight="12" refX="16" refY="6" viewBox="0 0 16 12" orient="auto" markerUnits="userSpaceOnUse"><path id="SvgjsPath1187" d="M0,2 L14,6 L0,11 L0,2" fill="#323232" stroke="#323232" stroke-width="2"></path></marker><marker id="SvgjsMarker1196" markerWidth="16" markerHeight="12" refX="16" refY="6" viewBox="0 0 16 12" orient="auto" markerUnits="userSpaceOnUse"><path id="SvgjsPath1197" d="M0,2 L14,6 L0,11 L0,2" fill="#323232" stroke="#323232" stroke-width="2"></path></marker><marker id="SvgjsMarker1206" markerWidth="16" markerHeight="12" refX="16" refY="6" viewBox="0 0 16 12" orient="auto" markerUnits="userSpaceOnUse"><path id="SvgjsPath1207" d="M0,2 L14,6 L0,11 L0,2" fill="#323232" stroke="#323232" stroke-width="2"></path></marker><marker id="SvgjsMarker1220" markerWidth="16" markerHeight="12" refX="16" refY="6" viewBox="0 0 16 12" orient="auto" markerUnits="userSpaceOnUse"><path id="SvgjsPath1221" d="M0,2 L14,6 L0,11 L0,2" fill="#323232" stroke="#323232" stroke-width="2"></path></marker><marker id="SvgjsMarker1230" markerWidth="16" markerHeight="12" refX="16" refY="6" viewBox="0 0 16 12" orient="auto" markerUnits="userSpaceOnUse"><path id="SvgjsPath1231" d="M0,2 L14,6 L0,11 L0,2" fill="#323232" stroke="#323232" stroke-width="2"></path></marker><marker id="SvgjsMarker1240" markerWidth="16" markerHeight="12" refX="16" refY="6" viewBox="0 0 16 12" orient="auto" markerUnits="userSpaceOnUse"><path id="SvgjsPath1241" d="M0,2 L14,6 L0,11 L0,2" fill="#323232" stroke="#323232" stroke-width="2"></path></marker><marker id="SvgjsMarker1244" markerWidth="16" markerHeight="12" refX="16" refY="6" viewBox="0 0 16 12" orient="auto" markerUnits="userSpaceOnUse"><path id="SvgjsPath1245" d="M0,2 L14,6 L0,11 L0,2" fill="#323232" stroke="#323232" stroke-width="2"></path></marker><marker id="SvgjsMarker1252" markerWidth="16" markerHeight="12" refX="16" refY="6" viewBox="0 0 16 12" orient="auto" markerUnits="userSpaceOnUse"><path id="SvgjsPath1253" d="M0,2 L14,6 L0,11 L0,2" fill="#323232" stroke="#323232" stroke-width="2"></path></marker><marker id="SvgjsMarker1256" markerWidth="16" markerHeight="12" refX="16" refY="6" viewBox="0 0 16 12" orient="auto" markerUnits="userSpaceOnUse"><path id="SvgjsPath1257" d="M0,2 L14,6 L0,11 L0,2" fill="#323232" stroke="#323232" stroke-width="2"></path></marker><marker id="SvgjsMarker1260" markerWidth="16" markerHeight="12" refX="16" refY="6" viewBox="0 0 16 12" orient="auto" markerUnits="userSpaceOnUse"><path id="SvgjsPath1261" d="M0,2 L14,6 L0,11 L0,2" fill="#323232" stroke="#323232" stroke-width="2"></path></marker><marker id="SvgjsMarker1264" markerWidth="16" markerHeight="12" refX="16" refY="6" viewBox="0 0 16 12" orient="auto" markerUnits="userSpaceOnUse"><path id="SvgjsPath1265" d="M0,2 L14,6 L0,11 L0,2" fill="#323232" stroke="#323232" stroke-width="2"></path></marker><marker id="SvgjsMarker1268" markerWidth="16" markerHeight="12" refX="16" refY="6" viewBox="0 0 16 12" orient="auto" markerUnits="userSpaceOnUse"><path id="SvgjsPath1269" d="M0,2 L14,6 L0,11 L0,2" fill="#323232" stroke="#323232" stroke-width="2"></path></marker><marker id="SvgjsMarker1272" markerWidth="16" markerHeight="12" refX="16" refY="6" viewBox="0 0 16 12" orient="auto" markerUnits="userSpaceOnUse"><path id="SvgjsPath1273" d="M0,2 L14,6 L0,11 L0,2" fill="#323232" stroke="#323232" stroke-width="2"></path></marker><marker id="SvgjsMarker1276" markerWidth="16" markerHeight="12" refX="16" refY="6" viewBox="0 0 16 12" orient="auto" markerUnits="userSpaceOnUse"><path id="SvgjsPath1277" d="M0,2 L14,6 L0,11 L0,2" fill="#323232" stroke="#323232" stroke-width="2"></path></marker><marker id="SvgjsMarker1280" markerWidth="16" markerHeight="12" refX="16" refY="6" viewBox="0 0 16 12" orient="auto" markerUnits="userSpaceOnUse"><path id="SvgjsPath1281" d="M0,2 L14,6 L0,11 L0,2" fill="#323232" stroke="#323232" stroke-width="2"></path></marker></defs><g id="SvgjsG1008" transform="translate(1040.0124969482422,25.008336385091134)"><path id="SvgjsPath1009" d="M 0 0L 166 0L 166 60L 0 60Z" stroke="#323232" stroke-width="2" fill-opacity="1" fill="#ffffff"></path><g id="SvgjsG1010"><text id="SvgjsText1011" font-family="&quot;Lucida Console&quot;" text-anchor="middle" font-size="16px" width="134" fill="#323232" font-weight="400" align="bottom" anchor="middle" family="&quot;Lucida Console&quot;" size="16px" weight="400" font-style="" y="17.6" transform="rotate(0)"><tspan id="SvgjsTspan1012" dy="20" x="83"><tspan id="SvgjsTspan1013" style="text-decoration:;">animation-list</tspan></tspan><tspan id="SvgjsTspan1014" dy="20" x="83"><tspan id="SvgjsTspan1015" style="text-decoration:;"> </tspan></tspan></text></g></g><g id="SvgjsG1016"><path id="SvgjsPath1017" d="M1123.0124969482424 85.00833638509116L1123.0124969482424 111.3416697184245L1125.0124969482422 111.3416697184245L1125.0124969482422 137.6750030517578" stroke="#323232" stroke-width="2" fill="none" marker-end="url(#SvgjsMarker1018)"></path><rect id="SvgjsRect1020" width="10" height="16" x="1119.0124969482422" y="103.3416697184245" fill="#ffffff"></rect><text id="SvgjsText1021" font-family="微软雅黑" text-anchor="middle" font-size="13px" width="10" fill="#323232" font-weight="400" align="top" anchor="middle" family="微软雅黑" size="13px" weight="400" font-style="" y="101.3916697184245" transform="rotate(0)"><tspan id="SvgjsTspan1022" dy="16" x="1124.0124969482422"><tspan id="SvgjsTspan1023" style="text-decoration:;">+</tspan></tspan></text></g><g id="SvgjsG1024" transform="translate(1075.0124969482422,137.6750030517578)"><path id="SvgjsPath1025" d="M 0 4Q 0 0 4 0L 96 0Q 100 0 100 4L 100 49Q 100 53 96 53L 4 53Q 0 53 0 49Z" stroke="#323232" stroke-width="2" fill-opacity="1" fill="#ffffff"></path><g id="SvgjsG1026"><text id="SvgjsText1027" font-family="微软雅黑" text-anchor="middle" font-size="13px" width="62" fill="#323232" font-weight="400" align="middle" anchor="middle" family="微软雅黑" size="13px" weight="400" font-style="" y="16.55" transform="rotate(0)"><tspan id="SvgjsTspan1028" dy="16" x="50"><tspan id="SvgjsTspan1029" style="text-decoration:;">animation</tspan></tspan></text></g></g><g id="SvgjsG1030"><path id="SvgjsPath1031" d="M1175.0124969482422 164.1750030517578L1221.0124969482422 164.1750030517578L1221.0124969482422 147.1750030517578L1267.0124969482422 147.1750030517578" stroke="#323232" stroke-width="2" fill="none" marker-end="url(#SvgjsMarker1032)"></path></g><g id="SvgjsG1034" transform="translate(1267.0124969482422,116.42500305175781)"><path id="SvgjsPath1035" d="M 0 30.75C 0 -10.25 97 -10.25 97 30.75C 97 71.75 0 71.75 0 30.75Z" stroke="#323232" stroke-width="2" fill-opacity="1" fill="#ffffff"></path><g id="SvgjsG1036"><text id="SvgjsText1037" font-family="微软雅黑" text-anchor="middle" font-size="13px" width="12" fill="#323232" font-weight="400" align="middle" anchor="middle" family="微软雅黑" size="13px" weight="400" font-style="" y="20.8" transform="rotate(0)"><tspan id="SvgjsTspan1038" dy="16" x="48.5"><tspan id="SvgjsTspan1039" style="text-decoration:;">id</tspan></tspan></text></g></g><g id="SvgjsG1040"><path id="SvgjsPath1041" d="M1125.0124969482422 190.6750030517578L1125.0124969482422 233.6750030517578L75.01249694824219 233.6750030517578L75.01249694824219 276.6750030517578" stroke="#323232" stroke-width="2" fill="none" marker-end="url(#SvgjsMarker1042)"></path></g><g id="SvgjsG1044" transform="translate(25.012496948242188,276.6750030517578)"><path id="SvgjsPath1045" d="M 0 4Q 0 0 4 0L 96 0Q 100 0 100 4L 100 40Q 100 44 96 44L 4 44Q 0 44 0 40Z" stroke="#323232" stroke-width="2" fill-opacity="1" fill="#ffffff"></path><g id="SvgjsG1046"><text id="SvgjsText1047" font-family="微软雅黑" text-anchor="middle" font-size="13px" width="75" fill="#323232" font-weight="400" align="middle" anchor="middle" family="微软雅黑" size="13px" weight="400" font-style="" y="12.05" transform="rotate(0)"><tspan id="SvgjsTspan1048" dy="16" x="50"><tspan id="SvgjsTspan1049" style="text-decoration:;">animeName</tspan></tspan></text></g></g><g id="SvgjsG1050"><path id="SvgjsPath1051" d="M1125.0124969482422 190.6750030517578L1125.0124969482422 233.6750030517578L206.5124969482422 233.6750030517578L206.5124969482422 276.6750030517578" stroke="#323232" stroke-width="2" fill="none" marker-end="url(#SvgjsMarker1052)"></path></g><g id="SvgjsG1054" transform="translate(153.0124969482422,276.6750030517578)"><path id="SvgjsPath1055" d="M 0 4Q 0 0 4 0L 103 0Q 107 0 107 4L 107 40Q 107 44 103 44L 4 44Q 0 44 0 40Z" stroke="#323232" stroke-width="2" fill-opacity="1" fill="#ffffff"></path><g id="SvgjsG1056"><text id="SvgjsText1057" font-family="微软雅黑" text-anchor="middle" font-size="13px" width="78" fill="#323232" font-weight="400" align="middle" anchor="middle" family="微软雅黑" size="13px" weight="400" font-style="" y="12.05" transform="rotate(0)"><tspan id="SvgjsTspan1058" dy="16" x="53.5"><tspan id="SvgjsTspan1059" style="text-decoration:;">animeMaker</tspan></tspan></text></g></g><g id="SvgjsG1060"><path id="SvgjsPath1061" d="M1125.0124969482422 190.6750030517578L1125.0124969482422 233.6750030517578L305.61250162124634 233.6750030517578L305.61250162124634 276.6750030517578" stroke="#323232" stroke-width="2" fill="none" marker-end="url(#SvgjsMarker1062)"></path></g><g id="SvgjsG1064" transform="translate(283.0124969482422,276.6750030517578)"><path id="SvgjsPath1065" d="M 0 4Q 0 0 4 0L 41.2000093460083 0Q 45.2000093460083 0 45.2000093460083 4L 45.2000093460083 40Q 45.2000093460083 44 41.2000093460083 44L 4 44Q 0 44 0 40Z" stroke="#323232" stroke-width="2" fill-opacity="1" fill="#ffffff"></path><g id="SvgjsG1066"><text id="SvgjsText1067" font-family="微软雅黑" text-anchor="middle" font-size="13px" width="17" fill="#323232" font-weight="400" align="middle" anchor="middle" family="微软雅黑" size="13px" weight="400" font-style="" y="12.05" transform="rotate(0)"><tspan id="SvgjsTspan1068" dy="16" x="23"><tspan id="SvgjsTspan1069" style="text-decoration:;">ref</tspan></tspan></text></g></g><g id="SvgjsG1070"><path id="SvgjsPath1071" d="M328.2125062942505 298.6750030517578L341.7125062942505 298.6750030517578L341.7125062942505 298.6750030517578L355.2125062942505 298.6750030517578" stroke="#323232" stroke-width="2" fill="none" marker-end="url(#SvgjsMarker1072)"></path></g><g id="SvgjsG1074" transform="translate(355.2125062942505,276.6750030517578)"><path id="SvgjsPath1075" d="M 0 22C 0 -7.333333333333333 75 -7.333333333333333 75 22C 75 51.333333333333336 0 51.333333333333336 0 22Z" stroke="#323232" stroke-width="2" fill-opacity="1" fill="#ffffff"></path><g id="SvgjsG1076"><text id="SvgjsText1077" font-family="微软雅黑" text-anchor="middle" font-size="13px" width="54" fill="#323232" font-weight="400" align="middle" anchor="middle" family="微软雅黑" size="13px" weight="400" font-style="" y="12.05" transform="rotate(0)"><tspan id="SvgjsTspan1078" dy="16" x="37.5"><tspan id="SvgjsTspan1079" style="text-decoration:;">platform</tspan></tspan></text></g></g><g id="SvgjsG1080" transform="translate(455.8124876022339,277.1750030517578)"><path id="SvgjsPath1081" d="M 0 4Q 0 0 4 0L 68 0Q 72 0 72 4L 72 39Q 72 43 68 43L 4 43Q 0 43 0 39Z" stroke="#323232" stroke-width="2" fill-opacity="1" fill="#ffffff"></path><g id="SvgjsG1082"><text id="SvgjsText1083" font-family="微软雅黑" text-anchor="middle" font-size="13px" width="49" fill="#323232" font-weight="400" align="middle" anchor="middle" family="微软雅黑" size="13px" weight="400" font-style="" y="11.55" transform="rotate(0)"><tspan id="SvgjsTspan1084" dy="16" x="36"><tspan id="SvgjsTspan1085" style="text-decoration:;">director</tspan></tspan></text></g></g><g id="SvgjsG1086"><path id="SvgjsPath1087" d="M1125.0124969482422 190.6750030517578L1125.0124969482422 233.9250030517578L491.8124876022339 233.9250030517578L491.8124876022339 277.1750030517578" stroke="#323232" stroke-width="2" fill="none" marker-end="url(#SvgjsMarker1088)"></path></g><g id="SvgjsG1090" transform="translate(663.5553697858537,281.30175821040433)"><path id="SvgjsPath1091" d="M 0 0L 97.14284624372215 0L 97.14284624372215 45.158732338557684L 0 45.158732338557684Z" stroke="#323232" stroke-width="2" fill-opacity="1" fill="#ffffff"></path><g id="SvgjsG1092"><text id="SvgjsText1093" font-family="微软雅黑" text-anchor="middle" font-size="13px" width="76" fill="#323232" font-weight="400" align="middle" anchor="middle" family="微软雅黑" size="13px" weight="400" font-style="" y="12.629366169278843" transform="rotate(0)"><tspan id="SvgjsTspan1094" dy="16" x="49"><tspan id="SvgjsTspan1095" style="text-decoration:;">screenwriter</tspan></tspan></text></g></g><g id="SvgjsG1096" transform="translate(883.0791684105283,285.68399617300526)"><path id="SvgjsPath1097" d="M 0 0L 114.44444202241436 0L 114.44444202241436 39.64519568072046L 0 39.64519568072046Z" stroke="#323232" stroke-width="2" fill-opacity="1" fill="#ffffff"></path><g id="SvgjsG1098"><text id="SvgjsText1099" font-family="微软雅黑" text-anchor="middle" font-size="13px" width="83" fill="#323232" font-weight="400" align="middle" anchor="middle" family="微软雅黑" size="13px" weight="400" font-style="" y="9.872597840360232" transform="rotate(0)"><tspan id="SvgjsTspan1100" dy="16" x="57.5"><tspan id="SvgjsTspan1101" style="text-decoration:;">origin_author</tspan></tspan></text></g></g><g id="SvgjsG1102" transform="translate(1122.2855176168787,282.2779061554834)"><path id="SvgjsPath1103" d="M 0 4Q 0 0 4 0L 99.01590450226195 0Q 103.01590450226195 0 103.01590450226195 4L 103.01590450226195 40.694014734125915Q 103.01590450226195 44.694014734125915 99.01590450226195 44.694014734125915L 4 44.694014734125915Q 0 44.694014734125915 0 40.694014734125915Z" stroke="#323232" stroke-width="2" fill-opacity="1" fill="#ffffff"></path><g id="SvgjsG1104"><text id="SvgjsText1105" font-family="微软雅黑" text-anchor="middle" font-size="13px" width="76" fill="#323232" font-weight="400" align="middle" anchor="middle" family="微软雅黑" size="13px" weight="400" font-style="" y="12.397007367062958" transform="rotate(0)"><tspan id="SvgjsTspan1106" dy="16" x="52"><tspan id="SvgjsTspan1107" style="text-decoration:;">releasePlace</tspan></tspan></text></g></g><g id="SvgjsG1108" transform="translate(1248.634755452474,281.18043168068107)"><path id="SvgjsPath1109" d="M 0 4Q 0 0 4 0L 83.46028597392774 0Q 87.46028597392774 0 87.46028597392774 4L 87.46028597392774 39.6778120002316Q 87.46028597392774 43.6778120002316 83.46028597392774 43.6778120002316L 4 43.6778120002316Q 0 43.6778120002316 0 39.6778120002316Z" stroke="#323232" stroke-width="2" fill-opacity="1" fill="#ffffff"></path><g id="SvgjsG1110"><text id="SvgjsText1111" font-family="微软雅黑" text-anchor="middle" font-size="13px" width="58" fill="#323232" font-weight="400" align="middle" anchor="middle" family="微软雅黑" size="13px" weight="400" font-style="" y="11.8889060001158" transform="rotate(0)"><tspan id="SvgjsTspan1112" dy="16" x="44"><tspan id="SvgjsTspan1113" style="text-decoration:;">language</tspan></tspan></text></g></g><g id="SvgjsG1114" transform="translate(1360.8569776746963,289.4231481391722)"><path id="SvgjsPath1115" d="M 0 0L 87.30155581519443 0L 87.30155581519443 27.37036129685731L 0 27.37036129685731Z" stroke="#323232" stroke-width="2" fill-opacity="1" fill="#ffffff"></path><g id="SvgjsG1116"><text id="SvgjsText1117" font-family="微软雅黑" text-anchor="middle" font-size="13px" width="53" fill="#323232" font-weight="400" align="middle" anchor="middle" family="微软雅黑" size="13px" weight="400" font-style="" y="3.7351806484286554" transform="rotate(0)"><tspan id="SvgjsTspan1118" dy="16" x="44"><tspan id="SvgjsTspan1119" style="text-decoration:;">duration</tspan></tspan></text></g></g><g id="SvgjsG1120" transform="translate(1466.7299935477133,280.6153592922777)"><path id="SvgjsPath1121" d="M 0 4Q 0 0 4 0L 68.6190161326574 0Q 72.6190161326574 0 72.6190161326574 4L 72.6190161326574 37.63668502995989Q 72.6190161326574 41.63668502995989 68.6190161326574 41.63668502995989L 4 41.63668502995989Q 0 41.63668502995989 0 37.63668502995989Z" stroke="#323232" stroke-width="2" fill-opacity="1" fill="#ffffff"></path><g id="SvgjsG1122"><text id="SvgjsText1123" font-family="微软雅黑" text-anchor="middle" font-size="13px" width="34" fill="#323232" font-weight="400" align="middle" anchor="middle" family="微软雅黑" size="13px" weight="400" font-style="" y="10.868342514979947" transform="rotate(0)"><tspan id="SvgjsTspan1124" dy="16" x="36.5"><tspan id="SvgjsTspan1125" style="text-decoration:;">score</tspan></tspan></text></g></g><g id="SvgjsG1126" transform="translate(1677.5236443413628,284.445350387493)"><path id="SvgjsPath1127" d="M 0 4Q 0 0 4 0L 103.85711137075305 0Q 107.85711137075305 0 107.85711137075305 4L 107.85711137075305 29.625710823945894Q 107.85711137075305 33.625710823945894 103.85711137075305 33.625710823945894L 4 33.625710823945894Q 0 33.625710823945894 0 29.625710823945894Z" stroke="#323232" stroke-width="2" fill-opacity="1" fill="#ffffff"></path><g id="SvgjsG1128"><text id="SvgjsText1129" font-family="微软雅黑" text-anchor="middle" font-size="13px" width="83" fill="#323232" font-weight="400" align="middle" anchor="middle" family="微软雅黑" size="13px" weight="400" font-style="" y="6.862855411972947" transform="rotate(0)"><tspan id="SvgjsTspan1130" dy="16" x="54"><tspan id="SvgjsTspan1131" style="text-decoration:;">totalEpisodes</tspan></tspan></text></g></g><g id="SvgjsG1132" transform="translate(1807.5236443413628,294.2187201107594)"><path id="SvgjsPath1133" d="M 0 4Q 0 0 4 0L 74.65076216440252 0Q 78.65076216440252 0 78.65076216440252 4L 78.65076216440252 16.066332489960814Q 78.65076216440252 20.066332489960814 74.65076216440252 20.066332489960814L 4 20.066332489960814Q 0 20.066332489960814 0 16.066332489960814Z" stroke="#323232" stroke-width="2" fill-opacity="1" fill="#ffffff"></path><g id="SvgjsG1134"><text id="SvgjsText1135" font-family="微软雅黑" text-anchor="middle" font-size="13px" width="27" fill="#323232" font-weight="400" align="middle" anchor="middle" family="微软雅黑" size="13px" weight="400" font-style="" y="0.08316624498040714" transform="rotate(0)"><tspan id="SvgjsTspan1136" dy="16" x="39.5"><tspan id="SvgjsTspan1137" style="text-decoration:;">type</tspan></tspan></text></g></g><g id="SvgjsG1138" transform="translate(1906.4125332302517,292.4075281978815)"><path id="SvgjsPath1139" d="M 0 4Q 0 0 4 0L 85.99996851360947 0Q 89.99996851360947 0 89.99996851360947 4L 89.99996851360947 24.6620607923673Q 89.99996851360947 28.6620607923673 85.99996851360947 28.6620607923673L 4 28.6620607923673Q 0 28.6620607923673 0 24.6620607923673Z" stroke="#323232" stroke-width="2" fill-opacity="1" fill="#ffffff"></path><g id="SvgjsG1140"><text id="SvgjsText1141" font-family="微软雅黑" text-anchor="middle" font-size="13px" width="58" fill="#323232" font-weight="400" align="middle" anchor="middle" family="微软雅黑" size="13px" weight="400" font-style="" y="4.381030396183649" transform="rotate(0)"><tspan id="SvgjsTspan1142" dy="16" x="45"><tspan id="SvgjsTspan1143" style="text-decoration:;">startTime</tspan></tspan></text></g></g><g id="SvgjsG1144" transform="translate(2025.30142211914,286.3647052886402)"><path id="SvgjsPath1145" d="M 0 4Q 0 0 4 0L 79.095206608848 0Q 83.095206608848 0 83.095206608848 4L 83.095206608848 20.449858941919103Q 83.095206608848 24.449858941919103 79.095206608848 24.449858941919103L 4 24.449858941919103Q 0 24.449858941919103 0 20.449858941919103Z" stroke="#323232" stroke-width="2" fill-opacity="1" fill="#ffffff"></path><g id="SvgjsG1146"><text id="SvgjsText1147" font-family="微软雅黑" text-anchor="middle" font-size="13px" width="62" fill="#323232" font-weight="400" align="middle" anchor="middle" family="微软雅黑" size="13px" weight="400" font-style="" y="2.2749294709595516" transform="rotate(0)"><tspan id="SvgjsTspan1148" dy="16" x="42"><tspan id="SvgjsTspan1149" style="text-decoration:;">anIntrodu</tspan></tspan></text></g></g><g id="SvgjsG1150"><path id="SvgjsPath1151" d="M1539.3490096803707 301.43370180725765L1562.8807714553113 301.43370180725765L1562.8807714553113 302.0813304424716L1586.4125332302517 302.0813304424716" stroke="#323232" stroke-width="2" fill="none" marker-end="url(#SvgjsMarker1152)"></path></g><g id="SvgjsG1154" transform="translate(1586.4125332302517,278.0182721599422)"><path id="SvgjsPath1155" d="M 0 25.51401000010719C 0 -8.50467000003573 71.11111111111109 -8.50467000003573 71.11111111111109 25.51401000010719C 71.11111111111109 59.53269000025011 0 59.53269000025011 0 25.51401000010719Z" stroke="#323232" stroke-width="2" fill-opacity="1" fill="#ffffff"></path><g id="SvgjsG1156"><text id="SvgjsText1157" font-family="微软雅黑" text-anchor="middle" font-size="13px" width="22" fill="#323232" font-weight="400" align="middle" anchor="middle" family="微软雅黑" size="13px" weight="400" font-style="" y="15.564010000107192" transform="rotate(0)"><tspan id="SvgjsTspan1158" dy="16" x="36"><tspan id="SvgjsTspan1159" style="text-decoration:;">site</tspan></tspan></text></g></g><g id="SvgjsG1160"><path id="SvgjsPath1161" d="M1846.849025423564 314.28505260072023L1846.849025423564 342.8943132135507L1846.849025423564 342.8943132135507L1846.849025423564 371.5035738263811" stroke="#323232" stroke-width="2" fill="none" marker-end="url(#SvgjsMarker1162)"></path><rect id="SvgjsRect1164" width="10" height="16" x="1841.849025423564" y="334.8943132135507" fill="#ffffff"></rect><text id="SvgjsText1165" font-family="微软雅黑" text-anchor="middle" font-size="13px" width="10" fill="#323232" font-weight="400" align="top" anchor="middle" family="微软雅黑" size="13px" weight="400" font-style="" y="332.9443132135507" transform="rotate(0)"><tspan id="SvgjsTspan1166" dy="16" x="1846.849025423564"><tspan id="SvgjsTspan1167" style="text-decoration:;">+</tspan></tspan></text></g><g id="SvgjsG1168" transform="translate(1796.849025423564,371.5035738263811)"><path id="SvgjsPath1169" d="M 0 0L 100 0L 100 35.71428571428572L 0 35.71428571428572Z" stroke="#323232" stroke-width="2" fill-opacity="1" fill="#ffffff"></path><g id="SvgjsG1170"><text id="SvgjsText1171" font-family="微软雅黑" text-anchor="middle" font-size="13px" width="30" fill="#323232" font-weight="400" align="middle" anchor="middle" family="微软雅黑" size="13px" weight="400" font-style="" y="7.907142857142861" transform="rotate(0)"><tspan id="SvgjsTspan1172" dy="16" x="50"><tspan id="SvgjsTspan1173" style="text-decoration:;">label</tspan></tspan></text></g></g><g id="SvgjsG1174"><path id="SvgjsPath1175" d="M1951.4125174870564 321.0695889902488L1951.4125174870564 347.7151528368864L1929.055386376759 347.7151528368864L1929.055386376759 374.36071668352395" stroke="#323232" stroke-width="2" fill="none" marker-end="url(#SvgjsMarker1176)"></path></g><g id="SvgjsG1178" transform="translate(1901.4125174870564,374.36071668352395)"><path id="SvgjsPath1179" d="M 0 4Q 0 0 4 0L 51.28573777940551 0Q 55.28573777940551 0 55.28573777940551 4L 55.28573777940551 26Q 55.28573777940551 30 51.28573777940551 30L 4 30Q 0 30 0 26Z" stroke="#323232" stroke-width="2" fill-opacity="1" fill="#ffffff"></path><g id="SvgjsG1180"><text id="SvgjsText1181" font-family="微软雅黑" text-anchor="middle" font-size="13px" width="26" fill="#323232" font-weight="400" align="middle" anchor="middle" family="微软雅黑" size="13px" weight="400" font-style="" y="5.05" transform="rotate(0)"><tspan id="SvgjsTspan1182" dy="16" x="28"><tspan id="SvgjsTspan1183" style="text-decoration:;">year</tspan></tspan></text></g></g><g id="SvgjsG1184"><path id="SvgjsPath1185" d="M1951.4125174870564 321.0695889902488L1951.4125174870564 347.39445312843156L2018.0405989666374 347.39445312843156L2018.0405989666374 373.7193172666143" stroke="#323232" stroke-width="2" fill="none" marker-end="url(#SvgjsMarker1186)"></path></g><g id="SvgjsG1188" transform="translate(1975.8818726831544,373.7193172666143)"><path id="SvgjsPath1189" d="M 0 4Q 0 0 4 0L 80.31745256696377 0Q 84.31745256696377 0 84.31745256696377 4L 84.31745256696377 28.857142857142833Q 84.31745256696377 32.85714285714283 80.31745256696377 32.85714285714283L 4 32.85714285714283Q 0 32.85714285714283 0 28.857142857142833Z" stroke="#323232" stroke-width="2" fill-opacity="1" fill="#ffffff"></path><g id="SvgjsG1190"><text id="SvgjsText1191" font-family="微软雅黑" text-anchor="middle" font-size="13px" width="42" fill="#323232" font-weight="400" align="middle" anchor="middle" family="微软雅黑" size="13px" weight="400" font-style="" y="6.478571428571416" transform="rotate(0)"><tspan id="SvgjsTspan1192" dy="16" x="42.5"><tspan id="SvgjsTspan1193" style="text-decoration:;">month</tspan></tspan></text></g></g><g id="SvgjsG1194"><path id="SvgjsPath1195" d="M1951.4125174870564 321.0695889902488L1951.4125174870564 345.2578433824923L2109.254927827657 345.2578433824923L2109.254927827657 369.44609777473585" stroke="#323232" stroke-width="2" fill="none" marker-end="url(#SvgjsMarker1196)"></path></g><g id="SvgjsG1198" transform="translate(2077.525886103138,369.44609777473585)"><path id="SvgjsPath1199" d="M 0 4Q 0 0 4 0L 59.458083449037986 0Q 63.458083449037986 0 63.458083449037986 4L 63.458083449037986 33.13036234902131Q 63.458083449037986 37.13036234902131 59.458083449037986 37.13036234902131L 4 37.13036234902131Q 0 37.13036234902131 0 33.13036234902131Z" stroke="#323232" stroke-width="2" fill-opacity="1" fill="#ffffff"></path><g id="SvgjsG1200"><text id="SvgjsText1201" font-family="微软雅黑" text-anchor="middle" font-size="13px" width="22" fill="#323232" font-weight="400" align="middle" anchor="middle" family="微软雅黑" size="13px" weight="400" font-style="" y="8.615181174510656" transform="rotate(0)"><tspan id="SvgjsTspan1202" dy="16" x="32"><tspan id="SvgjsTspan1203" style="text-decoration:;">day</tspan></tspan></text></g></g><g id="SvgjsG1204"><path id="SvgjsPath1205" d="M491.8124876022339 320.1750030517578L491.8124876022339 338.6964312962123L490.67371485184646 338.6964312962123L490.67371485184646 357.21785954066684" stroke="#323232" stroke-width="2" fill="none" marker-end="url(#SvgjsMarker1206)"></path><rect id="SvgjsRect1208" width="10" height="16" x="486.24310122704014" y="330.6964312962123" fill="#ffffff"></rect><text id="SvgjsText1209" font-family="微软雅黑" text-anchor="middle" font-size="13px" width="10" fill="#323232" font-weight="400" align="top" anchor="middle" family="微软雅黑" size="13px" weight="400" font-style="" y="328.74643129621234" transform="rotate(0)"><tspan id="SvgjsTspan1210" dy="16" x="491.24310122704014"><tspan id="SvgjsTspan1211" style="text-decoration:;">+</tspan></tspan></text></g><g id="SvgjsG1212" transform="translate(463.2206370684566,357.21785954066684)"><path id="SvgjsPath1213" d="M 0 4Q 0 0 4 0L 50.90615556677983 0Q 54.90615556677983 0 54.90615556677983 4L 54.90615556677983 27.428571428571388Q 54.90615556677983 31.428571428571388 50.90615556677983 31.428571428571388L 4 31.428571428571388Q 0 31.428571428571388 0 27.428571428571388Z" stroke="#323232" stroke-width="2" fill-opacity="1" fill="#ffffff"></path><g id="SvgjsG1214"><text id="SvgjsText1215" font-family="微软雅黑" text-anchor="middle" font-size="13px" width="34" fill="#323232" font-weight="400" align="middle" anchor="middle" family="微软雅黑" size="13px" weight="400" font-style="" y="5.764285714285694" transform="rotate(0)"><tspan id="SvgjsTspan1216" dy="16" x="27.5"><tspan id="SvgjsTspan1217" style="text-decoration:;">name</tspan></tspan></text></g></g><g id="SvgjsG1218"><path id="SvgjsPath1219" d="M719.5553640638078 324.36071668352395L719.5553640638078 344.36071668352395L720.6982133047919 344.36071668352395L720.6982133047919 364.36071668352395" stroke="#323232" stroke-width="2" fill="none" marker-end="url(#SvgjsMarker1220)"></path></g><g id="SvgjsG1222" transform="translate(678.1267844608849,364.36071668352395)"><path id="SvgjsPath1223" d="M 0 4Q 0 0 4 0L 81.14285768781406 0Q 85.14285768781406 0 85.14285768781406 4L 85.14285768781406 31.71428571428578Q 85.14285768781406 35.71428571428578 81.14285768781406 35.71428571428578L 4 35.71428571428578Q 0 35.71428571428578 0 31.71428571428578Z" stroke="#323232" stroke-width="2" fill-opacity="1" fill="#ffffff"></path><g id="SvgjsG1224"><text id="SvgjsText1225" font-family="微软雅黑" text-anchor="middle" font-size="13px" width="34" fill="#323232" font-weight="400" align="middle" anchor="middle" family="微软雅黑" size="13px" weight="400" font-style="" y="7.9071428571428894" transform="rotate(0)"><tspan id="SvgjsTspan1226" dy="16" x="43"><tspan id="SvgjsTspan1227" style="text-decoration:;">name</tspan></tspan></text></g></g><g id="SvgjsG1228"><path id="SvgjsPath1229" d="M940.3013894217354 325.3291918537257L940.3013894217354 349.4367910033187L942.0712338856289 349.4367910033187L942.0712338856289 373.54439015291166" stroke="#323232" stroke-width="2" fill="none" marker-end="url(#SvgjsMarker1230)"></path></g><g id="SvgjsG1232" transform="translate(907.4442465645926,372.93214525495245)"><path id="SvgjsPath1233" d="M 0 4Q 0 0 4 0L 65.25397464207242 0Q 69.25397464207242 0 69.25397464207242 4L 69.25397464207242 26Q 69.25397464207242 30 65.25397464207242 30L 4 30Q 0 30 0 26Z" stroke="#323232" stroke-width="2" fill-opacity="1" fill="#ffffff"></path><g id="SvgjsG1234"><text id="SvgjsText1235" font-family="微软雅黑" text-anchor="middle" font-size="13px" width="34" fill="#323232" font-weight="400" align="middle" anchor="middle" family="微软雅黑" size="13px" weight="400" font-style="" y="5.05" transform="rotate(0)"><tspan id="SvgjsTspan1236" dy="16" x="35"><tspan id="SvgjsTspan1237" style="text-decoration:;">name</tspan></tspan></text></g></g><g id="SvgjsG1238"><path id="SvgjsPath1239" d="M1125.0124969482422 190.6750030517578L1125.0124969482422 233.9883806310811L712.1267929077148 233.9883806310811L712.1267929077148 281.30175821040433" stroke="#323232" stroke-width="2" fill="none" marker-end="url(#SvgjsMarker1240)"></path></g><g id="SvgjsG1242"><path id="SvgjsPath1243" d="M1125.0124969482422 190.6750030517578L1125.0124969482422 242.1794996123815L940.3013894217354 242.1794996123815L940.3013894217354 285.68399617300526" stroke="#323232" stroke-width="2" fill="none" marker-end="url(#SvgjsMarker1244)"></path><rect id="SvgjsRect1246" width="13" height="16" x="1030.1569431849887" y="234.1794996123815" fill="#ffffff"></rect><text id="SvgjsText1247" font-family="微软雅黑" text-anchor="middle" font-size="13px" width="14" fill="#323232" font-weight="400" align="top" anchor="middle" family="微软雅黑" size="13px" weight="400" font-style="" y="232.22949961238152" transform="rotate(0)"><tspan id="SvgjsTspan1248" dy="16" x="1036.6569431849887"><tspan id="SvgjsTspan1249" style="text-decoration:;">？</tspan></tspan></text></g><g id="SvgjsG1250"><path id="SvgjsPath1251" d="M1125.0124969482422 190.6750030517578L1125.0124969482422 236.4764546036206L1173.7934698680097 236.4764546036206L1173.7934698680097 282.2779061554834" stroke="#323232" stroke-width="2" fill="none" marker-end="url(#SvgjsMarker1252)"></path></g><g id="SvgjsG1254"><path id="SvgjsPath1255" d="M1125.0124969482422 190.6750030517578L1125.0124969482422 235.92771736621944L1292.364898439438 235.92771736621944L1292.364898439438 281.18043168068107" stroke="#323232" stroke-width="2" fill="none" marker-end="url(#SvgjsMarker1256)"></path></g><g id="SvgjsG1258"><path id="SvgjsPath1259" d="M1125.0124969482422 190.6750030517578L1125.0124969482422 240.049075595465L1404.5077555822936 240.049075595465L1404.5077555822936 289.4231481391722" stroke="#323232" stroke-width="2" fill="none" marker-end="url(#SvgjsMarker1260)"></path></g><g id="SvgjsG1262"><path id="SvgjsPath1263" d="M1125.0124969482422 190.6750030517578L1125.0124969482422 235.64518117201771L1503.039501614042 235.64518117201771L1503.039501614042 280.6153592922777" stroke="#323232" stroke-width="2" fill="none" marker-end="url(#SvgjsMarker1264)"></path></g><g id="SvgjsG1266"><path id="SvgjsPath1267" d="M1125.0124969482422 190.6750030517578L1125.0124969482422 237.56017671962542L1731.4522000267393 237.56017671962542L1731.4522000267393 284.445350387493" stroke="#323232" stroke-width="2" fill="none" marker-end="url(#SvgjsMarker1268)"></path></g><g id="SvgjsG1270"><path id="SvgjsPath1271" d="M1125.0124969482422 190.6750030517578L1125.0124969482422 242.44686158125864L1846.849025423564 242.44686158125864L1846.849025423564 294.2187201107594" stroke="#323232" stroke-width="2" fill="none" marker-end="url(#SvgjsMarker1272)"></path></g><g id="SvgjsG1274"><path id="SvgjsPath1275" d="M1125.0124969482422 190.6750030517578L1125.0124969482422 241.54126562481963L1951.4125174870564 241.54126562481963L1951.4125174870564 292.4075281978815" stroke="#323232" stroke-width="2" fill="none" marker-end="url(#SvgjsMarker1276)"></path></g><g id="SvgjsG1278"><path id="SvgjsPath1279" d="M1125.0124969482422 190.6750030517578L1125.0124969482422 238.51985417019898L2066.849025423564 238.51985417019898L2066.849025423564 286.3647052886402" stroke="#323232" stroke-width="2" fill="none" marker-end="url(#SvgjsMarker1280)"></path></g></svg>