<svg t="1586355201504" class="icon" viewBox="0 0 2000 2000" version="1.1" xmlns="http://www.w3.org/2000/svg" p-id="8619" width="300" height="300">
	<!-- <path d="M266.5 944.6v-53h222v-747l-198 132v-57.3L496.8 77.6h48.7v814h190v53h-469z" p-id="8620" fill="#13227a">
    </path> -->
    <circle cx="540" cy="550" r="540" stroke="black"
  stroke-width="4" fill='#ffd150'/>
 <path d="M721.1 851.4C742 596.2 573.1 504.8 510.8 476c64.9-38.6 108.5-109.2 108.6-190.1 0.4-122.3-98.6-221.7-221-221.9-122.3-0.2-221.7 98.7-222 221.1-0.1 80.9 43.1 151.8 107.8 190.6C221.9 504 56.2 597.9 72.3 850c0 0-7.2 104.5 323.9 110h0.7c331.1-4 324.2-108.6 324.2-108.6z" p-id="10567" fill="#ffffff"></path><path d="M745 875.7z m-3.4-36.4C821.2 832 865 815.7 888 801.2c22.9-14.7 25.7-26.4 26.7-29.8l0.2-0.9v-1.9c0.9-11.8 1.4-23.3 1.4-34.3-0.4-178.7-120.7-241.8-168.4-264.5l-31.6-14.6 29.8-17.8c49.5-29.3 82.7-83.1 82.8-144.8v-0.5c0-93-75.2-168.5-169-168.7-27.7 0-53.8 7-76.8 19.1l-16.8-32.4c28.1-14.6 60-23.2 93.9-23.2h0.5c113.3 0.2 204.9 92.1 204.9 205.3v0.5c-0.1 63.5-29.1 120.2-74.6 157.8 61.5 34.4 162.2 114.9 161.8 283.8 0 11.8-0.5 24.1-1.4 36.2 0.2 7.2-3.9 31.5-32.2 53.2-28.4 22.1-79.3 42.9-174.2 51.8l-3.4-36.2z" p-id="10568" fill="#ffffff">
    </path>
    
</svg>