<?xml version="1.0" standalone="no"?><!DOCTYPE svg PUBLIC "-//W3C//DTD SVG 1.1//EN" "http://www.w3.org/Graphics/SVG/1.1/DTD/svg11.dtd"><svg t="1586394036591" class="icon" viewBox="0 0 1024 1024" version="1.1" xmlns="http://www.w3.org/2000/svg" p-id="5465" xmlns:xlink="http://www.w3.org/1999/xlink" width="200" height="200"><defs><style type="text/css"></style></defs><path d="M87.856 629.361c-11.312-9.899-4.242-26.866-4.242-26.866l52.317-86.253-60.801-97.564c-5.655-8.484-9.899-16.967-11.312-21.21-2.829-5.655-2.829-9.899-2.829-12.725 0-5.655 2.829-11.312 7.069-15.553 4.242-4.242 9.899-7.069 16.967-7.069s12.725 1.414 15.553 5.655c4.242 4.242 8.484 12.725 16.967 25.452l46.661 82.010 48.076-82.010c2.829-5.655 5.655-9.899 7.069-12.725s4.242-7.069 7.069-9.899c2.829-2.829 5.655-5.655 8.484-7.069 2.829-1.414 7.069-2.829 9.899-2.829 7.069 0 11.312 2.829 15.553 7.069s7.069 9.899 7.069 15.553c0 4.242-1.414 9.899-2.829 14.141-2.829 4.242-5.655 11.312-11.312 19.795l-131.501 209.268c-2.829 5.655-22.624 12.725-33.935 2.829zM463.975 487.963v-103.22c0-8.484 1.414-15.553 5.655-19.795s8.484-7.069 14.141-7.069 11.312 2.829 15.553 7.069c4.242 4.242 5.655 11.312 5.655 19.795v106.048c0 12.725 1.414 22.624 4.242 29.694 2.829 8.484 7.069 14.141 14.141 18.382 7.069 4.242 15.553 7.069 26.866 7.069 15.553 0 26.866-4.242 33.935-14.141 7.069-8.484 9.899-22.624 9.899-41.007v-106.048c0-8.484 1.414-15.553 5.655-19.795s8.484-7.069 14.141-7.069 11.312 2.829 15.553 7.069c4.242 4.242 5.655 11.312 5.655 19.795v103.22c0 16.967-1.414 31.108-4.242 42.42s-8.484 21.21-16.967 29.694c-7.069 7.069-15.553 12.725-25.452 15.553-9.899 2.829-21.21 5.655-33.935 5.655-15.553 0-28.278-1.414-39.591-5.655-11.312-4.242-19.795-8.484-26.866-16.967-7.069-7.069-12.725-16.967-15.553-28.278-7.069-11.312-8.484-25.452-8.484-42.42zM413.073 468.167c0-15.553-2.829-29.694-8.484-41.007s-11.312-19.795-21.21-25.452c-8.484-5.655-19.795-8.484-31.108-8.484-8.484 0-15.553 1.414-22.624 5.655-7.069 2.829-12.725 8.484-18.382 14.141-4.242 5.655-8.484 14.141-11.312 24.037-2.829 9.899-4.242 21.21-4.242 32.522 0 12.725 1.414 22.624 4.242 32.522 2.829 9.899 7.069 18.382 12.725 24.037 5.655 7.069 11.312 11.312 18.382 14.141 7.069 2.829 14.141 4.242 22.624 4.242 9.899 0 19.795-2.829 28.278-8.484 8.484-5.655 15.553-14.141 21.21-25.452 8.484-9.899 9.899-25.452 9.899-42.42zM353.685 357.876c21.21 0 39.591 4.242 53.731 12.725 15.553 8.484 26.866 21.21 35.349 38.177 8.484 16.967 12.725 35.349 12.725 57.974 0 16.967-1.414 31.108-5.655 45.248-4.242 14.141-9.899 25.452-18.382 35.349-8.484 9.899-18.382 18.382-31.108 24.037-12.725 5.655-26.866 8.484-42.42 8.484s-29.694-2.829-42.42-7.069c-12.725-5.655-22.624-12.725-31.108-22.624-8.484-9.899-15.553-21.21-19.795-35.349-4.242-14.141-7.069-28.278-7.069-45.248 0-16.967 1.414-31.108 5.655-45.248 4.242-14.141 9.899-25.452 18.382-35.349 8.484-9.899 18.382-16.967 31.108-22.624 11.312-4.242 25.452-7.069 41.007-8.484z" fill="" p-id="5466"></path><path d="M813.228 386.155c0-8.484 1.414-15.553 5.655-19.795s8.484-7.069 14.141-7.069 11.312 1.414 15.553 5.655c4.242 4.242 5.655 9.899 5.655 19.795l1.414 103.22c0 11.312 1.414 21.21 4.242 29.694s7.069 14.141 14.141 18.382c7.069 4.242 15.553 5.655 26.866 5.655 15.553 0 26.866-4.242 33.935-14.141 7.069-8.484 9.899-22.624 9.899-39.591l-1.414-103.22c0-8.484 1.414-15.553 5.655-19.795s8.484-7.069 14.141-7.069 11.312 1.414 15.553 5.655c4.242 4.242 5.655 9.899 5.655 19.795l1.414 100.393c0 16.967-1.414 29.694-4.242 41.007s-8.484 21.21-16.967 29.694c-7.069 7.069-15.553 12.725-25.452 15.553-9.899 2.829-21.21 5.655-33.935 5.655-15.553 0-28.278-1.414-39.591-4.242-11.312-2.829-19.795-8.484-28.278-15.553-7.069-7.069-12.725-16.967-15.553-28.278-2.829-11.312-5.655-25.452-5.655-41.007l-2.829-100.393zM684.556 386.155v73.527l80.596-86.253 9.899-9.899c2.829-1.414 5.655-2.829 11.312-2.829s11.312 1.414 14.141 5.655c4.242 4.242 5.655 8.484 5.655 12.725 0 5.655-2.829 12.725-9.899 18.382l-49.49 48.076 56.56 84.838c4.242 5.655 7.069 11.312 8.484 15.553s2.829 8.484 2.829 12.725c0 4.242-1.414 8.484-5.655 12.725-2.829 2.829-8.484 5.655-14.141 5.655s-9.899-1.414-14.141-4.242c-4.242-2.829-7.069-5.655-8.484-9.899-2.829-4.242-4.242-8.484-7.069-11.312l-48.076-76.354-33.935 32.522v43.833c0 8.484-1.414 15.553-5.655 19.795s-8.484 5.655-15.553 5.655c-2.829 0-7.069-1.414-9.899-2.829-2.829-1.414-5.655-4.242-7.069-7.069-1.414-2.829-1.414-5.655-2.829-9.899v-171.091c0-8.484 1.414-15.553 5.655-19.795s8.484-7.069 14.141-7.069 11.312 1.414 15.553 5.655c5.655 5.655 7.069 11.312 7.069 21.21z" fill="" p-id="5467"></path></svg>