<svg id="SvgjsSvg1290" width="3000.0125732421875" height="608.1625061035156" xmlns="http://www.w3.org/2000/svg" version="1.1" xmlns:xlink="http://www.w3.org/1999/xlink" xmlns:svgjs="http://svgjs.com/svgjs"><defs id="SvgjsDefs1291"><marker id="SvgjsMarker1302" markerWidth="16" markerHeight="12" refX="16" refY="6" viewBox="0 0 16 12" orient="auto" markerUnits="userSpaceOnUse"><path id="SvgjsPath1303" d="M0,2 L14,6 L0,11 L0,2" fill="#323232" stroke="#323232" stroke-width="2"></path></marker><marker id="SvgjsMarker1316" markerWidth="16" markerHeight="12" refX="16" refY="6" viewBox="0 0 16 12" orient="auto" markerUnits="userSpaceOnUse"><path id="SvgjsPath1317" d="M0,2 L14,6 L0,11 L0,2" fill="#323232" stroke="#323232" stroke-width="2"></path></marker><marker id="SvgjsMarker1326" markerWidth="16" markerHeight="12" refX="16" refY="6" viewBox="0 0 16 12" orient="auto" markerUnits="userSpaceOnUse"><path id="SvgjsPath1327" d="M0,2 L14,6 L0,11 L0,2" fill="#323232" stroke="#323232" stroke-width="2"></path></marker><marker id="SvgjsMarker1402" markerWidth="16" markerHeight="12" refX="16" refY="6" viewBox="0 0 16 12" orient="auto" markerUnits="userSpaceOnUse"><path id="SvgjsPath1403" d="M0,2 L14,6 L0,11 L0,2" fill="#323232" stroke="#323232" stroke-width="2"></path></marker><marker id="SvgjsMarker1412" markerWidth="16" markerHeight="12" refX="16" refY="6" viewBox="0 0 16 12" orient="auto" markerUnits="userSpaceOnUse"><path id="SvgjsPath1413" d="M0,2 L14,6 L0,11 L0,2" fill="#323232" stroke="#323232" stroke-width="2"></path></marker><marker id="SvgjsMarker1444" markerWidth="16" markerHeight="12" refX="16" refY="6" viewBox="0 0 16 12" orient="auto" markerUnits="userSpaceOnUse"><path id="SvgjsPath1445" d="M0,2 L14,6 L0,11 L0,2" fill="#323232" stroke="#323232" stroke-width="2"></path></marker><marker id="SvgjsMarker1448" markerWidth="16" markerHeight="12" refX="16" refY="6" viewBox="0 0 16 12" orient="auto" markerUnits="userSpaceOnUse"><path id="SvgjsPath1449" d="M0,2 L14,6 L0,11 L0,2" fill="#323232" stroke="#323232" stroke-width="2"></path></marker><marker id="SvgjsMarker1452" markerWidth="16" markerHeight="12" refX="16" refY="6" viewBox="0 0 16 12" orient="auto" markerUnits="userSpaceOnUse"><path id="SvgjsPath1453" d="M0,2 L14,6 L0,11 L0,2" fill="#323232" stroke="#323232" stroke-width="2"></path></marker><marker id="SvgjsMarker1474" markerWidth="16" markerHeight="12" refX="16" refY="6" viewBox="0 0 16 12" orient="auto" markerUnits="userSpaceOnUse"><path id="SvgjsPath1475" d="M0,2 L14,6 L0,11 L0,2" fill="#323232" stroke="#323232" stroke-width="2"></path></marker><marker id="SvgjsMarker1484" markerWidth="16" markerHeight="12" refX="16" refY="6" viewBox="0 0 16 12" orient="auto" markerUnits="userSpaceOnUse"><path id="SvgjsPath1485" d="M0,2 L14,6 L0,11 L0,2" fill="#323232" stroke="#323232" stroke-width="2"></path></marker><marker id="SvgjsMarker1494" markerWidth="16" markerHeight="12" refX="16" refY="6" viewBox="0 0 16 12" orient="auto" markerUnits="userSpaceOnUse"><path id="SvgjsPath1495" d="M0,2 L14,6 L0,11 L0,2" fill="#323232" stroke="#323232" stroke-width="2"></path></marker><marker id="SvgjsMarker1498" markerWidth="16" markerHeight="12" refX="16" refY="6" viewBox="0 0 16 12" orient="auto" markerUnits="userSpaceOnUse"><path id="SvgjsPath1499" d="M0,2 L14,6 L0,11 L0,2" fill="#323232" stroke="#323232" stroke-width="2"></path></marker><marker id="SvgjsMarker1502" markerWidth="16" markerHeight="12" refX="16" refY="6" viewBox="0 0 16 12" orient="auto" markerUnits="userSpaceOnUse"><path id="SvgjsPath1503" d="M0,2 L14,6 L0,11 L0,2" fill="#323232" stroke="#323232" stroke-width="2"></path></marker><marker id="SvgjsMarker1506" markerWidth="16" markerHeight="12" refX="16" refY="6" viewBox="0 0 16 12" orient="auto" markerUnits="userSpaceOnUse"><path id="SvgjsPath1507" d="M0,2 L14,6 L0,11 L0,2" fill="#323232" stroke="#323232" stroke-width="2"></path></marker><marker id="SvgjsMarker1510" markerWidth="16" markerHeight="12" refX="16" refY="6" viewBox="0 0 16 12" orient="auto" markerUnits="userSpaceOnUse"><path id="SvgjsPath1511" d="M0,2 L14,6 L0,11 L0,2" fill="#323232" stroke="#323232" stroke-width="2"></path></marker><marker id="SvgjsMarker1514" markerWidth="16" markerHeight="12" refX="16" refY="6" viewBox="0 0 16 12" orient="auto" markerUnits="userSpaceOnUse"><path id="SvgjsPath1515" d="M0,2 L14,6 L0,11 L0,2" fill="#323232" stroke="#323232" stroke-width="2"></path></marker><marker id="SvgjsMarker1518" markerWidth="16" markerHeight="12" refX="16" refY="6" viewBox="0 0 16 12" orient="auto" markerUnits="userSpaceOnUse"><path id="SvgjsPath1519" d="M0,2 L14,6 L0,11 L0,2" fill="#323232" stroke="#323232" stroke-width="2"></path></marker><marker id="SvgjsMarker1522" markerWidth="16" markerHeight="12" refX="16" refY="6" viewBox="0 0 16 12" orient="auto" markerUnits="userSpaceOnUse"><path id="SvgjsPath1523" d="M0,2 L14,6 L0,11 L0,2" fill="#323232" stroke="#323232" stroke-width="2"></path></marker><marker id="SvgjsMarker1526" markerWidth="16" markerHeight="12" refX="16" refY="6" viewBox="0 0 16 12" orient="auto" markerUnits="userSpaceOnUse"><path id="SvgjsPath1527" d="M0,2 L14,6 L0,11 L0,2" fill="#323232" stroke="#323232" stroke-width="2"></path></marker><marker id="SvgjsMarker1530" markerWidth="16" markerHeight="12" refX="16" refY="6" viewBox="0 0 16 12" orient="auto" markerUnits="userSpaceOnUse"><path id="SvgjsPath1531" d="M0,2 L14,6 L0,11 L0,2" fill="#323232" stroke="#323232" stroke-width="2"></path></marker><marker id="SvgjsMarker1534" markerWidth="16" markerHeight="12" refX="16" refY="6" viewBox="0 0 16 12" orient="auto" markerUnits="userSpaceOnUse"><path id="SvgjsPath1535" d="M0,2 L14,6 L0,11 L0,2" fill="#323232" stroke="#323232" stroke-width="2"></path></marker><marker id="SvgjsMarker1538" markerWidth="16" markerHeight="12" refX="16" refY="6" viewBox="0 0 16 12" orient="auto" markerUnits="userSpaceOnUse"><path id="SvgjsPath1539" d="M0,2 L14,6 L0,11 L0,2" fill="#323232" stroke="#323232" stroke-width="2"></path></marker><marker id="SvgjsMarker1542" markerWidth="16" markerHeight="12" refX="16" refY="6" viewBox="0 0 16 12" orient="auto" markerUnits="userSpaceOnUse"><path id="SvgjsPath1543" d="M0,2 L14,6 L0,11 L0,2" fill="#323232" stroke="#323232" stroke-width="2"></path></marker><marker id="SvgjsMarker1564" markerWidth="16" markerHeight="12" refX="16" refY="6" viewBox="0 0 16 12" orient="auto" markerUnits="userSpaceOnUse"><path id="SvgjsPath1565" d="M0,2 L14,6 L0,11 L0,2" fill="#323232" stroke="#323232" stroke-width="2"></path></marker><marker id="SvgjsMarker1568" markerWidth="16" markerHeight="12" refX="16" refY="6" viewBox="0 0 16 12" orient="auto" markerUnits="userSpaceOnUse"><path id="SvgjsPath1569" d="M0,2 L14,6 L0,11 L0,2" fill="#323232" stroke="#323232" stroke-width="2"></path></marker><marker id="SvgjsMarker1572" markerWidth="16" markerHeight="12" refX="16" refY="6" viewBox="0 0 16 12" orient="auto" markerUnits="userSpaceOnUse"><path id="SvgjsPath1573" d="M0,2 L14,6 L0,11 L0,2" fill="#323232" stroke="#323232" stroke-width="2"></path></marker></defs><g id="SvgjsG1292" transform="translate(1518.9623288351384,25.008344014485658)"><path id="SvgjsPath1293" d="M 0 0L 166 0L 166 60L 0 60Z" stroke="#323232" stroke-width="2" fill-opacity="1" fill="#ffffff"></path><g id="SvgjsG1294"><text id="SvgjsText1295" font-family="&quot;Lucida Console&quot;" text-anchor="middle" font-size="16px" width="134" fill="#323232" font-weight="400" align="bottom" anchor="middle" family="&quot;Lucida Console&quot;" size="16px" weight="400" font-style="" y="17.6" transform="rotate(0)"><tspan id="SvgjsTspan1296" dy="20" x="83"><tspan id="SvgjsTspan1297" style="text-decoration:;">animation-list</tspan></tspan><tspan id="SvgjsTspan1298" dy="20" x="83"><tspan id="SvgjsTspan1299" style="text-decoration:;"> </tspan></tspan></text></g></g><g id="SvgjsG1300"><path id="SvgjsPath1301" d="M1601.9623288351386 85.00834401448569L1601.9623288351386 111.34167734781903L1603.9623288351384 111.34167734781903L1603.9623288351384 137.67501068115234" stroke="#323232" stroke-width="2" fill="none" marker-end="url(#SvgjsMarker1302)"></path><rect id="SvgjsRect1304" width="10" height="16" x="1597.9623288351386" y="103.34167734781903" fill="#ffffff"></rect><text id="SvgjsText1305" font-family="微软雅黑" text-anchor="middle" font-size="13px" width="10" fill="#323232" font-weight="400" align="top" anchor="middle" family="微软雅黑" size="13px" weight="400" font-style="" y="101.39167734781903" transform="rotate(0)"><tspan id="SvgjsTspan1306" dy="16" x="1602.9623288351386"><tspan id="SvgjsTspan1307" style="text-decoration:;">+</tspan></tspan></text></g><g id="SvgjsG1308" transform="translate(1553.9623288351384,137.67501068115234)"><path id="SvgjsPath1309" d="M 0 4Q 0 0 4 0L 96 0Q 100 0 100 4L 100 49Q 100 53 96 53L 4 53Q 0 53 0 49Z" stroke="#323232" stroke-width="2" fill-opacity="1" fill="#ffffff"></path><g id="SvgjsG1310"><text id="SvgjsText1311" font-family="微软雅黑" text-anchor="middle" font-size="13px" width="62" fill="#323232" font-weight="400" align="middle" anchor="middle" family="微软雅黑" size="13px" weight="400" font-style="" y="16.55" transform="rotate(0)"><tspan id="SvgjsTspan1312" dy="16" x="50"><tspan id="SvgjsTspan1313" style="text-decoration:;">animation</tspan></tspan></text></g></g><g id="SvgjsG1314"><path id="SvgjsPath1315" d="M1653.9623288351384 164.17501068115234L1694.244930946847 164.17501068115234L1694.244930946847 164.17501068115234L1734.527533058556 164.17501068115234" stroke="#323232" stroke-width="2" fill="none" marker-end="url(#SvgjsMarker1316)"></path></g><g id="SvgjsG1318" transform="translate(1734.527533058556,136.4250106811524)"><path id="SvgjsPath1319" d="M 0 27.749999999999943C 0 -9.24999999999998 89.40026913328438 -9.24999999999998 89.40026913328438 27.749999999999943C 89.40026913328438 64.74999999999987 0 64.74999999999987 0 27.749999999999943Z" stroke="#323232" stroke-width="2" fill-opacity="1" fill="#ffffff"></path><g id="SvgjsG1320"><text id="SvgjsText1321" font-family="微软雅黑" text-anchor="middle" font-size="13px" width="11" fill="#323232" font-weight="400" align="middle" anchor="middle" family="微软雅黑" size="13px" weight="400" font-style="" y="17.799999999999944" transform="rotate(0)"><tspan id="SvgjsTspan1322" dy="16" x="45"><tspan id="SvgjsTspan1323" style="text-decoration:;">id</tspan></tspan></text></g></g><g id="SvgjsG1324"><path id="SvgjsPath1325" d="M1603.9623288351384 190.67501068115234L1603.9623288351384 227.06272622606525L91.68751525878906 227.06272622606525L91.68751525878906 263.4504417709782" stroke="#323232" stroke-width="2" fill="none" marker-end="url(#SvgjsMarker1326)"></path></g><g id="SvgjsG1328" transform="translate(41.68751525878906,263.4504417709782)"><path id="SvgjsPath1329" d="M 0 4Q 0 0 4 0L 96 0Q 100 0 100 4L 100 40Q 100 44 96 44L 4 44Q 0 44 0 40Z" stroke="#323232" stroke-width="2" fill-opacity="1" fill="#ffffff"></path><g id="SvgjsG1330"><text id="SvgjsText1331" font-family="微软雅黑" text-anchor="middle" font-size="13px" width="75" fill="#323232" font-weight="400" align="middle" anchor="middle" family="微软雅黑" size="13px" weight="400" font-style="" y="12.05" transform="rotate(0)"><tspan id="SvgjsTspan1332" dy="16" x="50"><tspan id="SvgjsTspan1333" style="text-decoration:;">animeName</tspan></tspan></text></g></g><g id="SvgjsG1334" transform="translate(25.00001525878872,453.5599902348878)"><path id="SvgjsPath1335" d="M 0 4Q 0 0 4 0L 102.65001424153672 0Q 106.65001424153672 0 106.65001424153672 4L 106.65001424153672 30.28548244686158Q 106.65001424153672 34.28548244686158 102.65001424153672 34.28548244686158L 4 34.28548244686158Q 0 34.28548244686158 0 30.28548244686158Z" stroke="#323232" stroke-width="2" fill-opacity="1" fill="#ffffff"></path><g id="SvgjsG1336"><text id="SvgjsText1337" font-family="微软雅黑" text-anchor="middle" font-size="13px" width="78" fill="#323232" font-weight="400" align="middle" anchor="middle" family="微软雅黑" size="13px" weight="400" font-style="" y="7.192741223430789" transform="rotate(0)"><tspan id="SvgjsTspan1338" dy="16" x="53.5"><tspan id="SvgjsTspan1339" style="text-decoration:;">animeMaker</tspan></tspan></text></g></g><g id="SvgjsG1340" transform="translate(196.13333924611374,454.0599902348879)"><path id="SvgjsPath1341" d="M 0 4Q 0 0 4 0L 67.35002358754508 0Q 71.35002358754508 0 71.35002358754508 4L 71.35002358754508 29.28548244686135Q 71.35002358754508 33.28548244686135 67.35002358754508 33.28548244686135L 4 33.28548244686135Q 0 33.28548244686135 0 29.28548244686135Z" stroke="#323232" stroke-width="2" fill-opacity="1" fill="#ffffff"></path><g id="SvgjsG1342"><text id="SvgjsText1343" font-family="微软雅黑" text-anchor="middle" font-size="13px" width="49" fill="#323232" font-weight="400" align="middle" anchor="middle" family="微软雅黑" size="13px" weight="400" font-style="" y="6.692741223430676" transform="rotate(0)"><tspan id="SvgjsTspan1344" dy="16" x="36"><tspan id="SvgjsTspan1345" style="text-decoration:;">director</tspan></tspan></text></g></g><g id="SvgjsG1346" transform="translate(358.87622142973385,453.7094220647075)"><path id="SvgjsPath1347" d="M 0 0L 97.7738080705916 0L 97.7738080705916 33.98661878722214L 0 33.98661878722214Z" stroke="#323232" stroke-width="2" fill-opacity="1" fill="#ffffff"></path><g id="SvgjsG1348"><text id="SvgjsText1349" font-family="微软雅黑" text-anchor="middle" font-size="13px" width="76" fill="#323232" font-weight="400" align="middle" anchor="middle" family="微软雅黑" size="13px" weight="400" font-style="" y="7.043309393611071" transform="rotate(0)"><tspan id="SvgjsTspan1350" dy="16" x="49"><tspan id="SvgjsTspan1351" style="text-decoration:;">screenwriter</tspan></tspan></text></g></g><g id="SvgjsG1352" transform="translate(695.1063692607609,450.99496695085116)"><path id="SvgjsPath1353" d="M 0 4Q 0 0 4 0L 94.2103269062311 0Q 98.2103269062311 0 98.2103269062311 4L 98.2103269062311 30.437731263255614Q 98.2103269062311 34.437731263255614 94.2103269062311 34.437731263255614L 4 34.437731263255614Q 0 34.437731263255614 0 30.437731263255614Z" stroke="#323232" stroke-width="2" fill-opacity="1" fill="#ffffff"></path><g id="SvgjsG1354"><text id="SvgjsText1355" font-family="微软雅黑" text-anchor="middle" font-size="13px" width="76" fill="#323232" font-weight="400" align="middle" anchor="middle" family="微软雅黑" size="13px" weight="400" font-style="" y="7.268865631627807" transform="rotate(0)"><tspan id="SvgjsTspan1356" dy="16" x="49.5"><tspan id="SvgjsTspan1357" style="text-decoration:;">releasePlace</tspan></tspan></text></g></g><g id="SvgjsG1358" transform="translate(848.6784866978892,452.17584537031536)"><path id="SvgjsPath1359" d="M 0 4Q 0 0 4 0L 81.63819421031371 0Q 85.63819421031371 0 85.63819421031371 4L 85.63819421031371 28.075974424327228Q 85.63819421031371 32.07597442432723 81.63819421031371 32.07597442432723L 4 32.07597442432723Q 0 32.07597442432723 0 28.075974424327228Z" stroke="#323232" stroke-width="2" fill-opacity="1" fill="#ffffff"></path><g id="SvgjsG1360"><text id="SvgjsText1361" font-family="微软雅黑" text-anchor="middle" font-size="13px" width="58" fill="#323232" font-weight="400" align="middle" anchor="middle" family="微软雅黑" size="13px" weight="400" font-style="" y="6.087987212163614" transform="rotate(0)"><tspan id="SvgjsTspan1362" dy="16" x="43"><tspan id="SvgjsTspan1363" style="text-decoration:;">language</tspan></tspan></text></g></g><g id="SvgjsG1364" transform="translate(995.1401137902003,453.5898224352333)"><path id="SvgjsPath1365" d="M 0 0L 87.30155581519443 0L 87.30155581519443 27.37036129685731L 0 27.37036129685731Z" stroke="#323232" stroke-width="2" fill-opacity="1" fill="#ffffff"></path><g id="SvgjsG1366"><text id="SvgjsText1367" font-family="微软雅黑" text-anchor="middle" font-size="13px" width="53" fill="#323232" font-weight="400" align="middle" anchor="middle" family="微软雅黑" size="13px" weight="400" font-style="" y="3.7351806484286554" transform="rotate(0)"><tspan id="SvgjsTspan1368" dy="16" x="44"><tspan id="SvgjsTspan1369" style="text-decoration:;">duration</tspan></tspan></text></g></g><g id="SvgjsG1370" transform="translate(1665.384178524926,454.3591384622838)"><path id="SvgjsPath1371" d="M 0 4Q 0 0 4 0L 67.26582554408401 0Q 71.26582554408401 0 71.26582554408401 4L 71.26582554408401 25.759990509389695Q 71.26582554408401 29.759990509389695 67.26582554408401 29.759990509389695L 4 29.759990509389695Q 0 29.759990509389695 0 25.759990509389695Z" stroke="#323232" stroke-width="2" fill-opacity="1" fill="#ffffff"></path><g id="SvgjsG1372"><text id="SvgjsText1373" font-family="微软雅黑" text-anchor="middle" font-size="13px" width="33" fill="#323232" font-weight="400" align="middle" anchor="middle" family="微软雅黑" size="13px" weight="400" font-style="" y="4.929995254694847" transform="rotate(0)"><tspan id="SvgjsTspan1374" dy="16" x="36"><tspan id="SvgjsTspan1375" style="text-decoration:;">score</tspan></tspan></text></g></g><g id="SvgjsG1376" transform="translate(1271.1778293185762,453.7751585797244)"><path id="SvgjsPath1377" d="M 0 4Q 0 0 4 0L 103.85711137075305 0Q 107.85711137075305 0 107.85711137075305 4L 107.85711137075305 29.625710823945894Q 107.85711137075305 33.625710823945894 103.85711137075305 33.625710823945894L 4 33.625710823945894Q 0 33.625710823945894 0 29.625710823945894Z" stroke="#323232" stroke-width="2" fill-opacity="1" fill="#ffffff"></path><g id="SvgjsG1378"><text id="SvgjsText1379" font-family="微软雅黑" text-anchor="middle" font-size="13px" width="83" fill="#323232" font-weight="400" align="middle" anchor="middle" family="微软雅黑" size="13px" weight="400" font-style="" y="6.862855411972947" transform="rotate(0)"><tspan id="SvgjsTspan1380" dy="16" x="54"><tspan id="SvgjsTspan1381" style="text-decoration:;">totalEpisodes</tspan></tspan></text></g></g><g id="SvgjsG1382" transform="translate(1429.9440728814955,453.99255232283747)"><path id="SvgjsPath1383" d="M 0 4Q 0 0 4 0L 78.9054056399707 0Q 82.9054056399707 0 82.9054056399707 4L 82.9054056399707 24.23892406051209Q 82.9054056399707 28.23892406051209 78.9054056399707 28.23892406051209L 4 28.23892406051209Q 0 28.23892406051209 0 24.23892406051209Z" stroke="#323232" stroke-width="2" fill-opacity="1" fill="#ffffff"></path><g id="SvgjsG1384"><text id="SvgjsText1385" font-family="微软雅黑" text-anchor="middle" font-size="13px" width="27" fill="#323232" font-weight="400" align="middle" anchor="middle" family="微软雅黑" size="13px" weight="400" font-style="" y="4.169462030256045" transform="rotate(0)"><tspan id="SvgjsTspan1386" dy="16" x="41.5"><tspan id="SvgjsTspan1387" style="text-decoration:;">type</tspan></tspan></text></g></g><g id="SvgjsG1388" transform="translate(1864.2333848741355,454.35214303418195)"><path id="SvgjsPath1389" d="M 0 4Q 0 0 4 0L 85.99996851360947 0Q 89.99996851360947 0 89.99996851360947 4L 89.99996851360947 24.6620607923673Q 89.99996851360947 28.6620607923673 85.99996851360947 28.6620607923673L 4 28.6620607923673Q 0 28.6620607923673 0 24.6620607923673Z" stroke="#323232" stroke-width="2" fill-opacity="1" fill="#ffffff"></path><g id="SvgjsG1390"><text id="SvgjsText1391" font-family="微软雅黑" text-anchor="middle" font-size="13px" width="58" fill="#323232" font-weight="400" align="middle" anchor="middle" family="微软雅黑" size="13px" weight="400" font-style="" y="4.381030396183649" transform="rotate(0)"><tspan id="SvgjsTspan1392" dy="16" x="45"><tspan id="SvgjsTspan1393" style="text-decoration:;">startTime</tspan></tspan></text></g></g><g id="SvgjsG1394" transform="translate(2129.78894042969,456.3012762129863)"><path id="SvgjsPath1395" d="M 0 4Q 0 0 4 0L 79.095206608848 0Q 83.095206608848 0 83.095206608848 4L 83.095206608848 20.449858941919103Q 83.095206608848 24.449858941919103 79.095206608848 24.449858941919103L 4 24.449858941919103Q 0 24.449858941919103 0 20.449858941919103Z" stroke="#323232" stroke-width="2" fill-opacity="1" fill="#ffffff"></path><g id="SvgjsG1396"><text id="SvgjsText1397" font-family="微软雅黑" text-anchor="middle" font-size="13px" width="62" fill="#323232" font-weight="400" align="middle" anchor="middle" family="微软雅黑" size="13px" weight="400" font-style="" y="2.2749294709595516" transform="rotate(0)"><tspan id="SvgjsTspan1398" dy="16" x="42"><tspan id="SvgjsTspan1399" style="text-decoration:;">anIntrodu</tspan></tspan></text></g></g><g id="SvgjsG1400"><path id="SvgjsPath1401" d="M1736.650004069009 469.2391337169787L1757.0889689242922 469.2391337169787L1757.0889689242922 469.7270605036258L1777.5279337795755 469.7270605036258" stroke="#323232" stroke-width="2" fill="none" marker-end="url(#SvgjsMarker1402)"></path></g><g id="SvgjsG1404" transform="translate(1777.5279337795755,454.2390858034703)"><path id="SvgjsPath1405" d="M 0 16.421866943990096C 0 -5.473955647996699 58.28873695610082 -5.473955647996699 58.28873695610082 16.421866943990096C 58.28873695610082 38.31768953597689 0 38.31768953597689 0 16.421866943990096Z" stroke="#323232" stroke-width="2" fill-opacity="1" fill="#ffffff"></path><g id="SvgjsG1406"><text id="SvgjsText1407" font-family="微软雅黑" text-anchor="middle" font-size="13px" width="22" fill="#323232" font-weight="400" align="middle" anchor="middle" family="微软雅黑" size="13px" weight="400" font-style="" y="6.471866943990096" transform="rotate(0)"><tspan id="SvgjsTspan1408" dy="16" x="29.5"><tspan id="SvgjsTspan1409" style="text-decoration:;">site</tspan></tspan></text></g></g><g id="SvgjsG1410"><path id="SvgjsPath1411" d="M1471.3967757014807 482.23147638334956L1471.3967757014807 515.2008622528958L1472.153333189628 515.2008622528958L1472.153333189628 548.1702481224422" stroke="#323232" stroke-width="2" fill="none" marker-end="url(#SvgjsMarker1412)"></path><rect id="SvgjsRect1414" width="10" height="16" x="1466.7750544455544" y="507.20086225289583" fill="#ffffff"></rect><text id="SvgjsText1415" font-family="微软雅黑" text-anchor="middle" font-size="13px" width="10" fill="#323232" font-weight="400" align="top" anchor="middle" family="微软雅黑" size="13px" weight="400" font-style="" y="505.25086225289584" transform="rotate(0)"><tspan id="SvgjsTspan1416" dy="16" x="1471.7750544455544"><tspan id="SvgjsTspan1417" style="text-decoration:;">+</tspan></tspan></text></g><g id="SvgjsG1418" transform="translate(1422.153333189628,548.1702481224422)"><path id="SvgjsPath1419" d="M 0 0L 100 0L 100 35.71428571428572L 0 35.71428571428572Z" stroke="#323232" stroke-width="2" fill-opacity="1" fill="#ffffff"></path><g id="SvgjsG1420"><text id="SvgjsText1421" font-family="微软雅黑" text-anchor="middle" font-size="13px" width="30" fill="#323232" font-weight="400" align="middle" anchor="middle" family="微软雅黑" size="13px" weight="400" font-style="" y="7.907142857142861" transform="rotate(0)"><tspan id="SvgjsTspan1422" dy="16" x="50"><tspan id="SvgjsTspan1423" style="text-decoration:;">label</tspan></tspan></text></g></g><g id="SvgjsG1424" transform="translate(1078.400016784668,263.7423170166385)"><path id="SvgjsPath1425" d="M 0 4Q 0 0 4 0L 102.25 0Q 106.25 0 106.25 4L 106.25 33.13036234902131Q 106.25 37.13036234902131 102.25 37.13036234902131L 4 37.13036234902131Q 0 37.13036234902131 0 33.13036234902131Z" stroke="#323232" stroke-width="2" fill-opacity="1" fill="#ffffff"></path><g id="SvgjsG1426"><text id="SvgjsText1427" font-family="微软雅黑" text-anchor="middle" font-size="13px" width="34" fill="#323232" font-weight="400" align="middle" anchor="middle" family="微软雅黑" size="13px" weight="400" font-style="" y="8.615181174510656" transform="rotate(0)"><tspan id="SvgjsTspan1428" dy="16" x="53.5"><tspan id="SvgjsTspan1429" style="text-decoration:;">detail</tspan></tspan></text></g></g><g id="SvgjsG1430" transform="translate(2498.4530585317925,262.5786580717326)"><path id="SvgjsPath1431" d="M 0 4Q 0 0 4 0L 97.25 0Q 101.25 0 101.25 4L 101.25 33.13036234902131Q 101.25 37.13036234902131 97.25 37.13036234902131L 4 37.13036234902131Q 0 37.13036234902131 0 33.13036234902131Z" stroke="#323232" stroke-width="2" fill-opacity="1" fill="#ffffff"></path><g id="SvgjsG1432"><text id="SvgjsText1433" font-family="微软雅黑" text-anchor="middle" font-size="13px" width="53" fill="#323232" font-weight="400" align="middle" anchor="middle" family="微软雅黑" size="13px" weight="400" font-style="" y="8.615181174510656" transform="rotate(0)"><tspan id="SvgjsTspan1434" dy="16" x="51"><tspan id="SvgjsTspan1435" style="text-decoration:;">resource</tspan></tspan></text></g></g><g id="SvgjsG1436" transform="translate(2862.0212365352745,262.0633916329453)"><path id="SvgjsPath1437" d="M 0 4Q 0 0 4 0L 108.5 0Q 112.5 0 112.5 4L 112.5 32.998540639182295Q 112.5 36.998540639182295 108.5 36.998540639182295L 4 36.998540639182295Q 0 36.998540639182295 0 32.998540639182295Z" stroke="#323232" stroke-width="2" fill-opacity="1" fill="#ffffff"></path><g id="SvgjsG1438"><text id="SvgjsText1439" font-family="微软雅黑" text-anchor="middle" font-size="13px" width="59" fill="#323232" font-weight="400" align="middle" anchor="middle" family="微软雅黑" size="13px" weight="400" font-style="" y="8.549270319591148" transform="rotate(0)"><tspan id="SvgjsTspan1440" dy="16" x="56.5"><tspan id="SvgjsTspan1441" style="text-decoration:;">comment</tspan></tspan></text></g></g><g id="SvgjsG1442"><path id="SvgjsPath1443" d="M1603.9623288351384 190.67501068115234L1603.9623288351384 227.2086638488954L1131.525016784668 227.2086638488954L1131.525016784668 263.7423170166385" stroke="#323232" stroke-width="2" fill="none" marker-end="url(#SvgjsMarker1444)"></path></g><g id="SvgjsG1446"><path id="SvgjsPath1447" d="M1603.9623288351384 190.67501068115234L1603.9623288351384 226.6268343764425L2549.0780585317925 226.6268343764425L2549.0780585317925 262.5786580717326" stroke="#323232" stroke-width="2" fill="none" marker-end="url(#SvgjsMarker1448)"></path></g><g id="SvgjsG1450"><path id="SvgjsPath1451" d="M1603.9623288351384 190.67501068115234L1603.9623288351384 226.3692011570488L2918.2712365352745 226.3692011570488L2918.2712365352745 262.0633916329453" stroke="#323232" stroke-width="2" fill="none" marker-end="url(#SvgjsMarker1452)"></path></g><g id="SvgjsG1454" transform="translate(2458.1500418526775,222.0633916329453)"><path id="SvgjsPath1455" d="M 0 0L 160 0L 160 40L 0 40Z" stroke="none" fill="none"></path><g id="SvgjsG1456"><text id="SvgjsText1457" font-family="微软雅黑" text-anchor="middle" font-size="13px" width="10" fill="#323232" font-weight="400" align="middle" anchor="middle" family="微软雅黑" size="13px" weight="400" font-style="" y="10.05" transform="rotate(0)"><tspan id="SvgjsTspan1458" dy="16" x="80"><tspan id="SvgjsTspan1459" style="text-decoration:;">+</tspan></tspan></text></g></g><g id="SvgjsG1460" transform="translate(525.8166961669916,451.9823071480703)"><path id="SvgjsPath1461" d="M 0 4Q 0 0 4 0L 90.16666666666708 0Q 94.16666666666708 0 94.16666666666708 4L 94.16666666666708 28.463050868817277Q 94.16666666666708 32.46305086881728 90.16666666666708 32.46305086881728L 4 32.46305086881728Q 0 32.46305086881728 0 28.463050868817277Z" stroke="#323232" stroke-width="2" fill-opacity="1" fill="#ffffff"></path><g id="SvgjsG1462"><text id="SvgjsText1463" font-family="微软雅黑" text-anchor="middle" font-size="13px" width="57" fill="#323232" font-weight="400" align="middle" anchor="middle" family="微软雅黑" size="13px" weight="400" font-style="" y="6.281525434408638" transform="rotate(0)"><tspan id="SvgjsTspan1464" dy="16" x="47.5"><tspan id="SvgjsTspan1465" style="text-decoration:;">postersrc</tspan></tspan></text></g></g><g id="SvgjsG1466" transform="translate(1114.9833882649737,447.6411186922919)"><path id="SvgjsPath1467" d="M 0 20.63829791468791C 0 -6.879432638229304 116.66666666666515 -6.879432638229304 116.66666666666515 20.63829791468791C 116.66666666666515 48.156028467605125 0 48.156028467605125 0 20.63829791468791Z" stroke="#323232" stroke-width="2" fill-opacity="1" fill="#ffffff"></path><g id="SvgjsG1468"><text id="SvgjsText1469" font-family="微软雅黑" text-anchor="middle" font-size="13px" width="87" fill="#323232" font-weight="400" align="middle" anchor="middle" family="微软雅黑" size="13px" weight="400" font-style="" y="10.688297914687912" transform="rotate(0)"><tspan id="SvgjsTspan1470" dy="16" x="58.5"><tspan id="SvgjsTspan1471" style="text-decoration:;">units：minute</tspan></tspan></text></g></g><g id="SvgjsG1472"><path id="SvgjsPath1473" d="M1082.4416696053947 467.275003083662L1098.7125289351843 467.275003083662L1098.7125289351843 468.2794166069797L1114.9833882649737 468.2794166069797" stroke="#323232" stroke-width="2" fill="none" marker-end="url(#SvgjsMarker1474)"></path></g><g id="SvgjsG1476" transform="translate(1565.6500447591145,453.99255232283747)"><path id="SvgjsPath1477" d="M 0 14.286864284142325C 0 -4.762288094714108 76.66666666666674 -4.762288094714108 76.66666666666674 14.286864284142325C 76.66666666666674 33.33601666299876 0 33.33601666299876 0 14.286864284142325Z" stroke="#323232" stroke-width="2" fill-opacity="1" fill="#ffffff"></path><g id="SvgjsG1478"><text id="SvgjsText1479" font-family="微软雅黑" text-anchor="middle" font-size="13px" width="30" fill="#323232" font-weight="400" align="middle" anchor="middle" family="微软雅黑" size="13px" weight="400" font-style="" y="4.336864284142325" transform="rotate(0)"><tspan id="SvgjsTspan1480" dy="16" x="38.5"><tspan id="SvgjsTspan1481" style="text-decoration:;">form</tspan></tspan></text></g></g><g id="SvgjsG1482"><path id="SvgjsPath1483" d="M1512.8494785214662 468.1120143530935L1539.2497616402902 468.1120143530935L1539.2497616402902 468.2794166069798L1565.6500447591145 468.2794166069798" stroke="#323232" stroke-width="2" fill="none" marker-end="url(#SvgjsMarker1484)"></path></g><g id="SvgjsG1486" transform="translate(1996.983357747396,454.3916920684018)"><path id="SvgjsPath1487" d="M 0 4Q 0 0 4 0L 76 0Q 80 0 80 4L 80 24.42636818325019Q 80 28.42636818325019 76 28.42636818325019L 4 28.42636818325019Q 0 28.42636818325019 0 24.42636818325019Z" stroke="#323232" stroke-width="2" fill-opacity="1" fill="#ffffff"></path><g id="SvgjsG1488"><text id="SvgjsText1489" font-family="微软雅黑" text-anchor="middle" font-size="13px" width="54" fill="#323232" font-weight="400" align="middle" anchor="middle" family="微软雅黑" size="13px" weight="400" font-style="" y="4.263184091625095" transform="rotate(0)"><tspan id="SvgjsTspan1490" dy="16" x="40"><tspan id="SvgjsTspan1491" style="text-decoration:;">endTime</tspan></tspan></text></g></g><g id="SvgjsG1492"><path id="SvgjsPath1493" d="M1131.525016784668 300.8726793656598L1131.525016784668 377.2163348002738L78.32502237955708 377.2163348002738L78.32502237955708 453.5599902348878" stroke="#323232" stroke-width="2" fill="none" marker-end="url(#SvgjsMarker1494)"></path></g><g id="SvgjsG1496"><path id="SvgjsPath1497" d="M1131.525016784668 300.8726793656598L1131.525016784668 377.46633480027384L231.80835103988625 377.46633480027384L231.80835103988625 454.0599902348879" stroke="#323232" stroke-width="2" fill="none" marker-end="url(#SvgjsMarker1498)"></path></g><g id="SvgjsG1500"><path id="SvgjsPath1501" d="M1131.525016784668 300.8726793656598L1131.525016784668 377.29105071518364L407.7631254650296 377.29105071518364L407.7631254650296 453.7094220647075" stroke="#323232" stroke-width="2" fill="none" marker-end="url(#SvgjsMarker1502)"></path></g><g id="SvgjsG1504"><path id="SvgjsPath1505" d="M1131.525016784668 300.8726793656598L1131.525016784668 376.42749325686503L572.9000295003252 376.42749325686503L572.9000295003252 451.9823071480703" stroke="#323232" stroke-width="2" fill="none" marker-end="url(#SvgjsMarker1506)"></path></g><g id="SvgjsG1508"><path id="SvgjsPath1509" d="M1131.525016784668 300.8726793656598L1131.525016784668 375.93382315825545L744.2115327138763 375.93382315825545L744.2115327138763 450.99496695085116" stroke="#323232" stroke-width="2" fill="none" marker-end="url(#SvgjsMarker1510)"></path></g><g id="SvgjsG1512"><path id="SvgjsPath1513" d="M1131.525016784668 300.8726793656598L1131.525016784668 376.5242623679876L891.4975838030459 376.5242623679876L891.4975838030459 452.17584537031536" stroke="#323232" stroke-width="2" fill="none" marker-end="url(#SvgjsMarker1514)"></path></g><g id="SvgjsG1516"><path id="SvgjsPath1517" d="M1131.525016784668 300.8726793656598L1131.525016784668 377.2312509004465L1038.7908916977976 377.2312509004465L1038.7908916977976 453.5898224352333" stroke="#323232" stroke-width="2" fill="none" marker-end="url(#SvgjsMarker1518)"></path></g><g id="SvgjsG1520"><path id="SvgjsPath1521" d="M1131.525016784668 300.8726793656598L1131.525016784668 377.3239189726921L1325.1063850039527 377.3239189726921L1325.1063850039527 453.7751585797244" stroke="#323232" stroke-width="2" fill="none" marker-end="url(#SvgjsMarker1522)"></path></g><g id="SvgjsG1524"><path id="SvgjsPath1525" d="M1131.525016784668 300.8726793656598L1131.525016784668 377.43261584424863L1471.3967757014807 377.43261584424863L1471.3967757014807 453.99255232283747" stroke="#323232" stroke-width="2" fill="none" marker-end="url(#SvgjsMarker1526)"></path></g><g id="SvgjsG1528"><path id="SvgjsPath1529" d="M1131.525016784668 300.8726793656598L1131.525016784668 377.6159089139718L1701.017091296968 377.6159089139718L1701.017091296968 454.3591384622838" stroke="#323232" stroke-width="2" fill="none" marker-end="url(#SvgjsMarker1530)"></path></g><g id="SvgjsG1532"><path id="SvgjsPath1533" d="M1131.525016784668 300.8726793656598L1131.525016784668 377.61241119992087L1909.2333691309404 377.61241119992087L1909.2333691309404 454.35214303418195" stroke="#323232" stroke-width="2" fill="none" marker-end="url(#SvgjsMarker1534)"></path></g><g id="SvgjsG1536"><path id="SvgjsPath1537" d="M1131.525016784668 300.8726793656598L1131.525016784668 377.6321857170308L2036.983357747396 377.6321857170308L2036.983357747396 454.3916920684018" stroke="#323232" stroke-width="2" fill="none" marker-end="url(#SvgjsMarker1538)"></path></g><g id="SvgjsG1540"><path id="SvgjsPath1541" d="M1131.525016784668 300.8726793656598L1131.525016784668 378.58697778932304L2171.3365437341135 378.58697778932304L2171.3365437341135 456.3012762129863" stroke="#323232" stroke-width="2" fill="none" marker-end="url(#SvgjsMarker1542)"></path></g><g id="SvgjsG1544" transform="translate(2333.4577730619,454.3916920684018)"><path id="SvgjsPath1545" d="M 0 4Q 0 0 4 0L 82.92307692307713 0Q 86.92307692307713 0 86.92307692307713 4L 86.92307692307713 30.526022453265853Q 86.92307692307713 34.52602245326585 82.92307692307713 34.52602245326585L 4 34.52602245326585Q 0 34.52602245326585 0 30.526022453265853Z" stroke="#323232" stroke-width="2" fill-opacity="1" fill="#ffffff"></path><g id="SvgjsG1546"><text id="SvgjsText1547" font-family="微软雅黑" text-anchor="middle" font-size="13px" width="54" fill="#323232" font-weight="400" align="middle" anchor="middle" family="微软雅黑" size="13px" weight="400" font-style="" y="7.313011226632926" transform="rotate(0)"><tspan id="SvgjsTspan1548" dy="16" x="43.5"><tspan id="SvgjsTspan1549" style="text-decoration:;">platform</tspan></tspan></text></g></g><g id="SvgjsG1550" transform="translate(2506.385750839485,456.5025829069474)"><path id="SvgjsPath1551" d="M 0 4Q 0 0 4 0L 81.38461538461524 0Q 85.38461538461524 0 85.38461538461524 4L 85.38461538461524 26.304240776174765Q 85.38461538461524 30.304240776174765 81.38461538461524 30.304240776174765L 4 30.304240776174765Q 0 30.304240776174765 0 26.304240776174765Z" stroke="#323232" stroke-width="2" fill-opacity="1" fill="#ffffff"></path><g id="SvgjsG1552"><text id="SvgjsText1553" font-family="微软雅黑" text-anchor="middle" font-size="13px" width="17" fill="#323232" font-weight="400" align="middle" anchor="middle" family="微软雅黑" size="13px" weight="400" font-style="" y="5.2021203880873825" transform="rotate(0)"><tspan id="SvgjsTspan1554" dy="16" x="43"><tspan id="SvgjsTspan1555" style="text-decoration:;">src</tspan></tspan></text></g></g><g id="SvgjsG1556" transform="translate(2670.99623460036,455.224576315968)"><path id="SvgjsPath1557" d="M 0 4Q 0 0 4 0L 79.84615384615427 0Q 83.84615384615427 0 83.84615384615427 4L 83.84615384615427 23.307692307692264Q 83.84615384615427 27.307692307692264 79.84615384615427 27.307692307692264L 4 27.307692307692264Q 0 27.307692307692264 0 23.307692307692264Z" stroke="#323232" stroke-width="2" fill-opacity="1" fill="#ffffff"></path><g id="SvgjsG1558"><text id="SvgjsText1559" font-family="微软雅黑" text-anchor="middle" font-size="13px" width="14" fill="#323232" font-weight="400" align="middle" anchor="middle" family="微软雅黑" size="13px" weight="400" font-style="" y="3.703846153846132" transform="rotate(0)"><tspan id="SvgjsTspan1560" dy="16" x="42"><tspan id="SvgjsTspan1561" style="text-decoration:;">vv</tspan></tspan></text></g></g><g id="SvgjsG1562"><path id="SvgjsPath1563" d="M2549.0780585317925 299.7090204207539L2549.0780585317925 378.1058016638507L2549.0780585317925 378.1058016638507L2549.0780585317925 456.5025829069474" stroke="#323232" stroke-width="2" fill="none" marker-end="url(#SvgjsMarker1564)"></path></g><g id="SvgjsG1566"><path id="SvgjsPath1567" d="M2549.0780585317925 299.7090204207539L2549.0780585317925 377.05035624457787L2376.9193115234384 377.05035624457787L2376.9193115234384 454.3916920684018" stroke="#323232" stroke-width="2" fill="none" marker-end="url(#SvgjsMarker1568)"></path></g><g id="SvgjsG1570"><path id="SvgjsPath1571" d="M2549.0780585317925 299.7090204207539L2549.0780585317925 377.46679836836097L2712.919311523437 377.46679836836097L2712.919311523437 455.224576315968" stroke="#323232" stroke-width="2" fill="none" marker-end="url(#SvgjsMarker1572)"></path></g></svg>